<svg xmlns="http://www.w3.org/2000/svg" width="18.038" height="20.079" viewBox="0 0 18.038 20.079">
  <g id="COCO_Line_Bag" data-name="COCO/Line/Bag" transform="translate(-3.238 -2.249)">
    <path id="Vector" d="M.395,8.285A4.927,4.927,0,0,1,4.213,4.8a20.4,20.4,0,0,1,8.086,0,4.927,4.927,0,0,1,3.818,3.487l.079.29a9,9,0,0,1-.358,5.781l-.1.234a5.934,5.934,0,0,1-4.612,3.563l-.773.12a13.676,13.676,0,0,1-4.2,0l-.773-.12A5.934,5.934,0,0,1,.77,14.59l-.1-.234A9,9,0,0,1,.316,8.575Z" transform="translate(4 3.141)" fill="none" stroke="#4c8613" stroke-linejoin="round" stroke-width="1.5"/>
    <path id="Vector-2" data-name="Vector" d="M11.392,5.187a4.137,4.137,0,0,0,.256-2.557A3.364,3.364,0,0,0,8.894.077L8.773.056a3.926,3.926,0,0,0-1.32,0L7.331.077A3.364,3.364,0,0,0,4.578,2.63a4.137,4.137,0,0,0,.256,2.557" transform="translate(4.144 3)" fill="none" stroke="#4c8613" stroke-linejoin="round" stroke-width="1.5"/>
  </g>
</svg>
