<svg xmlns="http://www.w3.org/2000/svg" width="23.121" height="22.513" viewBox="0 0 23.121 22.513">
  <g id="COCO_Line_Home" data-name="COCO/Line/Home" transform="translate(1.061 2.75)">
    <path id="Vector" d="M19,7.839v5.738a7.263,7.263,0,0,1-5.573,7.081,12.751,12.751,0,0,1-5.864,0,7.263,7.263,0,0,1-5.573-7.081V7.839M21,9.6,13.8,2.35C12.244.783,11.466,0,10.5,0S8.756.783,7.2,2.35L0,9.6M12.688,20.763l.136-.286a4.24,4.24,0,0,0,.338-2.6l-.023-.12a2.653,2.653,0,0,0-1.894-2.071,2.787,2.787,0,0,0-1.491,0,2.653,2.653,0,0,0-1.894,2.071l-.023.12a4.24,4.24,0,0,0,.338,2.6l.136.286" transform="translate(0 -2)" fill="none" stroke="#fff" stroke-linecap="round" stroke-width="1.5"/>
  </g>
</svg>
