<svg xmlns="http://www.w3.org/2000/svg" width="22.512" height="22.512" viewBox="0 0 22.512 22.512">
  <g id="COCO_Line_Note" data-name="COCO/Line/Note" transform="translate(0.756 0.756)">
    <path id="Vector" d="M.412,6.942A8.763,8.763,0,0,1,6.942.412a15.579,15.579,0,0,1,7.116,0,8.763,8.763,0,0,1,6.53,6.53,15.579,15.579,0,0,1,0,7.116,8.763,8.763,0,0,1-6.53,6.53,15.579,15.579,0,0,1-7.116,0,8.763,8.763,0,0,1-6.53-6.53A15.579,15.579,0,0,1,.412,6.942Z" fill="none" stroke="#aed489" stroke-linecap="round" stroke-width="1.5"/>
    <path id="Vector-2" data-name="Vector" d="M11.081,18c0-2.884,0-4.326.914-5.222s2.385-.9,5.328-.9" transform="translate(3 2.355)" fill="none" stroke="#aed489" stroke-linecap="round" stroke-width="1.5"/>
    <path id="Vector-3" data-name="Vector" d="M0,0H3M0,3H5" transform="translate(7.385 7.338)" fill="none" stroke="#aed489" stroke-linecap="round" stroke-width="1.5"/>
  </g>
</svg>
