<svg xmlns="http://www.w3.org/2000/svg" width="21.5" height="23.515" viewBox="0 0 21.5 23.515">
  <g id="COCO_Duotone_Notification" data-name="COCO/Duotone/Notification" transform="translate(0.75 0.763)">
    <path id="Vector" d="M7.537.406A8.442,8.442,0,0,0,2.044,6.237l-.068.256a12.938,12.938,0,0,0-.257,5.489l.03.177q.024.143.055.284a3.047,3.047,0,0,0,.59,5.758l.47.1a35.252,35.252,0,0,0,14.275,0l.47-.1a3.047,3.047,0,0,0,.588-5.758q.035-.157.062-.318l.032-.188a12.978,12.978,0,0,0-.232-5.407l-.092-.354A8.234,8.234,0,0,0,12.63.415,8.1,8.1,0,0,0,7.537.406Z" transform="translate(0)" fill="none" stroke="#aed489" stroke-linecap="round" stroke-width="1.5"/>
    <path id="Vector-2" data-name="Vector" d="M5.408,14.99c-.062.438-.337.11-.213.681l.074.338a2.521,2.521,0,0,0,1.874,1.918l.2.048a3,3,0,0,0,1.4,0l.2-.048a2.521,2.521,0,0,0,1.874-1.918l.074-.338c.124-.57-.119-.118-.2-.681" transform="translate(1.96 3.944)" fill="none" stroke="#aed489" stroke-linecap="round" stroke-width="1.5"/>
  </g>
</svg>
