<svg xmlns="http://www.w3.org/2000/svg" width="19.285" height="19.285" viewBox="0 0 19.285 19.285">
  <g id="COCO_Line_Search" data-name="COCO/Line/Search" transform="translate(-2.245 -2.245)">
    <path id="Vector" d="M.316,5.324A6.721,6.721,0,0,1,5.324.316a11.948,11.948,0,0,1,5.457,0,6.721,6.721,0,0,1,5.008,5.008,11.948,11.948,0,0,1,0,5.457,6.721,6.721,0,0,1-5.008,5.008,11.948,11.948,0,0,1-5.457,0A6.721,6.721,0,0,1,.316,10.781,11.948,11.948,0,0,1,.316,5.324Z" transform="translate(3 3)" fill="none" stroke="#b9c9a8" stroke-width="1.5"/>
    <path id="Vector-2" data-name="Vector" d="M14.335,14.335,18,18" transform="translate(3 3)" fill="none" stroke="#b9c9a8" stroke-width="1.5"/>
  </g>
</svg>
