<svg xmlns="http://www.w3.org/2000/svg" width="17.686" height="16.845" viewBox="0 0 17.686 16.845">
  <g id="Star" transform="translate(0.514 0.5)">
    <path id="Star-2" data-name="Star" d="M13.258,9.844a.917.917,0,0,0-.266.808l.74,4.1a.9.9,0,0,1-.375.9.917.917,0,0,1-.974.067L8.7,13.792a.942.942,0,0,0-.416-.109H8.053a.676.676,0,0,0-.225.075l-3.69,1.933a.973.973,0,0,1-.591.092.926.926,0,0,1-.741-1.059l.741-4.1a.932.932,0,0,0-.266-.815L.274,6.9A.9.9,0,0,1,.05,5.955.935.935,0,0,1,.79,5.33l4.139-.6a.926.926,0,0,0,.733-.507L7.487.483A.867.867,0,0,1,7.653.258L7.728.2A.559.559,0,0,1,7.862.092L7.953.058,8.095,0h.351a.932.932,0,0,1,.733.5l1.848,3.723a.926.926,0,0,0,.691.507l4.139.6a.944.944,0,0,1,.758.625.9.9,0,0,1-.242.941Z" transform="translate(0 0)" fill="none" stroke="#d5d5d5" stroke-width="1"/>
  </g>
</svg>
